# xmcd
#
# Track frame offsets:
#	150
#	16193
#	32856
#	49857
#	66348
#	83990
#	96037
#	111824
#	128151
#	137361
#	150561
#	171133
#	187585
#	200558
#	218090
#	237981
#
# Disc length: 3400 seconds
#
# Revision: 0
# Processed by: cddbd v1.5.2PL0 Copyright (c) Steve Scherf et al.
# Submitted via: audiograbber 1.83.01
#
DISCID=d00d4610
DTITLE=Various Artist - CD Tex Vol 59 Oct 2007
DYEAR=2007
DGENRE=Country
TTITLE0=Tommy Alverson - Upside Down
TTITLE1=Jesse Jennings - Me And Afton
TTITLE2=80 Proof - One Senorita Two Margaritas
TTITLE3=Darren Kozelsky - The Runnin Kind
TTITLE4=Doug Moreland - Not Afraid To Fall
TTITLE5=Randy Brown - Hard Hard World
TTITLE6=Jerry Lee Surber - Caesar
TTITLE7=The Derailers - Big In Vegas
TTITLE8=Ed Burleson - Big Town Small World Blues
TTITLE9=Buzz Cason - Texas Wildflower
TTITLE10=Doyle Bramhall - Lost In The Congo
TTITLE11=Sweet Root - I See What You Want To See
TTITLE12=Keith McCoy - Strange To Us Is Dangerous
TTITLE13=David Lee Kaiser - Running
TTITLE14=Tim Fralik - Ain't Living Long Like This
TTITLE15=Dr. Bruce - Haunted House
EXTD=
EXTT0=
EXTT1=
EXTT2=
EXTT3=
EXTT4=
EXTT5=
EXTT6=
EXTT7=
EXTT8=
EXTT9=
EXTT10=
EXTT11=
EXTT12=
EXTT13=
EXTT14=
EXTT15=
PLAYORDER=
